# Blender 3.4.1
# www.blender.org
mtllib grid_displayobj.mtl
o Cube
v -1.000000 -0.100000 1.000000
v -1.000000 0.100000 1.000000
v -1.000000 -0.100000 -1.000000
v -1.000000 0.100000 -1.000000
v 1.000000 -0.100000 1.000000
v 1.000000 0.100000 1.000000
v 1.000000 -0.100000 -1.000000
v 1.000000 0.100000 -1.000000
v 0.833333 -0.100000 -1.000000
v -0.833333 -0.100000 -1.000000
v -0.833333 0.100000 -1.000000
v 0.833333 0.100000 -1.000000
v -0.833333 -0.100000 1.000000
v 0.833333 -0.100000 1.000000
v 0.833333 0.100000 1.000000
v -0.833333 0.100000 1.000000
v -1.000000 -0.100000 -0.833333
v -1.000000 -0.100000 0.833333
v -1.000000 0.100000 0.833333
v -1.000000 0.100000 -0.833333
v 1.000000 -0.100000 0.833333
v 1.000000 -0.100000 -0.833333
v 1.000000 0.100000 -0.833333
v 1.000000 0.100000 0.833333
v 0.833333 0.100000 -0.833333
v 0.833333 0.100000 0.833333
v -0.833333 0.100000 -0.833333
v -0.833333 0.100000 0.833333
v -0.833333 -0.100000 -0.833333
v -0.833333 -0.100000 0.833333
v 0.833333 -0.100000 -0.833333
v 0.833333 -0.100000 0.833333
v -0.277778 -0.100000 1.000000
v 0.277778 -0.100000 1.000000
v 0.277778 0.100000 1.000000
v -0.277778 0.100000 1.000000
v 0.277778 -0.100000 0.833333
v -0.277778 -0.100000 0.833333
v -0.277778 0.100000 0.833333
v 0.277778 0.100000 0.833333
v -1.000000 -0.100000 -0.277778
v -1.000000 -0.100000 0.277778
v -1.000000 0.100000 0.277778
v -1.000000 0.100000 -0.277778
v -0.833333 0.100000 -0.277778
v -0.833333 0.100000 0.277778
v -0.833333 -0.100000 -0.277778
v -0.833333 -0.100000 0.277778
v 0.277778 -0.100000 -1.000000
v -0.277778 -0.100000 -1.000000
v -0.277778 0.100000 -1.000000
v 0.277778 0.100000 -1.000000
v 0.277778 -0.100000 -0.833333
v -0.277778 -0.100000 -0.833333
v -0.277778 0.100000 -0.833333
v 0.277778 0.100000 -0.833333
v 1.000000 -0.100000 0.277778
v 1.000000 -0.100000 -0.277778
v 1.000000 0.100000 -0.277778
v 1.000000 0.100000 0.277778
v 0.833333 0.100000 -0.277778
v 0.833333 0.100000 0.277778
v 0.833333 -0.100000 -0.277778
v 0.833333 -0.100000 0.277778
vn -1.0000 -0.0000 -0.0000
vn -0.0000 -0.0000 -1.0000
vn 1.0000 -0.0000 -0.0000
vn -0.0000 -0.0000 1.0000
vn -0.0000 -1.0000 -0.0000
vn -0.0000 1.0000 -0.0000
vt 0.375000 1.000000
vt 0.125000 0.750000
vt 0.375000 0.000000
vt 0.625000 1.000000
vt 0.875000 0.750000
vt 0.625000 0.000000
vt 0.375000 0.250000
vt 0.125000 0.500000
vt 0.625000 0.250000
vt 0.875000 0.500000
vt 0.375000 0.750000
vt 0.625000 0.750000
vt 0.375000 0.500000
vt 0.625000 0.500000
vt 0.375000 0.416667
vt 0.291667 0.500000
vt 0.208333 0.500000
vt 0.375000 0.333333
vt 0.791667 0.500000
vt 0.625000 0.333333
vt 0.625000 0.416667
vt 0.708333 0.500000
vt 0.375000 0.916667
vt 0.208333 0.750000
vt 0.291667 0.750000
vt 0.375000 0.833333
vt 0.625000 0.833333
vt 0.708333 0.750000
vt 0.791667 0.750000
vt 0.625000 0.916667
vt 0.375000 0.166667
vt 0.125000 0.583333
vt 0.125000 0.666667
vt 0.375000 0.083333
vt 0.875000 0.666667
vt 0.625000 0.083333
vt 0.625000 0.166667
vt 0.875000 0.583333
vt 0.375000 0.666667
vt 0.375000 0.583333
vt 0.625000 0.583333
vt 0.625000 0.666667
vt 0.708333 0.583333
vt 0.708333 0.666667
vt 0.791667 0.583333
vt 0.791667 0.666667
vt 0.208333 0.583333
vt 0.208333 0.666667
vt 0.291667 0.583333
vt 0.291667 0.666667
vt 0.375000 0.888889
vt 0.236111 0.750000
vt 0.375000 0.861111
vt 0.263889 0.750000
vt 0.625000 0.861111
vt 0.736111 0.750000
vt 0.625000 0.888889
vt 0.763889 0.750000
vt 0.263889 0.666667
vt 0.236111 0.666667
vt 0.763889 0.666667
vt 0.736111 0.666667
vt 0.375000 0.138889
vt 0.125000 0.611111
vt 0.375000 0.111111
vt 0.125000 0.638889
vt 0.625000 0.111111
vt 0.875000 0.638889
vt 0.625000 0.138889
vt 0.875000 0.611111
vt 0.791667 0.611111
vt 0.791667 0.638889
vt 0.208333 0.611111
vt 0.208333 0.638889
vt 0.375000 0.388889
vt 0.263889 0.500000
vt 0.375000 0.361111
vt 0.236111 0.500000
vt 0.763889 0.500000
vt 0.625000 0.361111
vt 0.736111 0.500000
vt 0.625000 0.388889
vt 0.263889 0.583333
vt 0.236111 0.583333
vt 0.763889 0.583333
vt 0.736111 0.583333
vt 0.375000 0.638889
vt 0.375000 0.611111
vt 0.625000 0.611111
vt 0.625000 0.638889
vt 0.708333 0.611111
vt 0.708333 0.638889
vt 0.291667 0.611111
vt 0.291667 0.638889
s 0
usemtl 
f 17/31/1 20/37/1 4/9/1 3/7/1
f 9/15/2 12/21/2 8/14/2 7/13/2
f 21/39/3 24/42/3 6/12/3 5/11/3
f 13/23/4 16/30/4 2/4/4 1/1/4
f 32/50/5 21/39/5 5/11/5 14/25/5
f 28/46/6 19/35/6 2/5/6 16/29/6
f 24/42/6 26/44/6 15/28/6 6/12/6
f 39/61/6 28/46/6 16/29/6 36/58/6
f 18/33/5 30/48/5 13/24/5 1/2/5
f 37/59/5 32/50/5 14/25/5 34/54/5
f 5/11/4 6/12/4 15/27/4 14/26/4
f 33/51/4 36/57/4 16/30/4 13/23/4
f 3/7/2 4/9/2 11/20/2 10/18/2
f 49/75/2 52/82/2 12/21/2 9/15/2
f 49/76/5 9/16/5 31/49/5 53/83/5
f 14/26/4 15/27/4 35/55/4 34/53/4
f 3/8/5 10/17/5 29/47/5 17/32/5
f 42/66/5 48/74/5 30/48/5 18/33/5
f 51/79/6 11/19/6 27/45/6 55/85/6
f 34/54/1 35/56/1 40/62/1 37/59/1
f 8/14/6 12/22/6 25/43/6 23/41/6
f 60/90/6 62/92/6 26/44/6 24/42/6
f 11/19/6 4/10/6 20/38/6 27/45/6
f 46/72/6 43/68/6 19/35/6 28/46/6
f 9/16/5 7/13/5 22/40/5 31/49/5
f 64/94/5 57/87/5 21/39/5 32/50/5
f 7/13/3 8/14/3 23/41/3 22/40/3
f 57/87/3 60/90/3 24/42/3 21/39/3
f 1/3/1 2/6/1 19/36/1 18/34/1
f 41/63/1 44/69/1 20/37/1 17/31/1
f 30/48/5 38/60/5 33/52/5 13/24/5
f 40/62/2 26/44/2 32/50/2 37/59/2
f 26/44/6 40/62/6 35/56/6 15/28/6
f 26/44/1 62/92/1 64/94/1 32/50/1
f 18/34/1 19/36/1 43/67/1 42/65/1
f 64/94/2 62/92/2 60/90/2 57/87/2
f 27/45/6 20/38/6 44/70/6 45/71/6
f 42/66/2 43/68/2 46/72/2 48/74/2
f 17/32/5 29/47/5 47/73/5 41/64/5
f 28/46/3 30/48/3 48/74/3 46/72/3
f 12/22/6 52/81/6 56/86/6 25/43/6
f 38/60/2 30/48/2 28/46/2 39/61/2
f 10/17/5 50/78/5 54/84/5 29/47/5
f 36/58/3 33/52/3 38/60/3 39/61/3
f 10/18/2 11/20/2 51/80/2 50/77/2
f 45/71/3 47/73/3 29/47/3 27/45/3
f 22/40/3 23/41/3 59/89/3 58/88/3
f 54/84/4 55/85/4 27/45/4 29/47/4
f 31/49/5 22/40/5 58/88/5 63/93/5
f 55/85/3 54/84/3 50/78/3 51/80/3
f 23/41/6 25/43/6 61/91/6 59/89/6
f 41/64/4 47/73/4 45/71/4 44/70/4
f 63/93/1 61/91/1 25/43/1 31/49/1
f 53/83/1 56/86/1 52/82/1 49/76/1
f 56/86/4 53/83/4 31/49/4 25/43/4
f 63/93/4 58/88/4 59/89/4 61/91/4
