# Blender 4.1.1
# www.blender.org
mtllib circle_mesh.mtl
o Cylinder
v -0.000000 0.021232 -4.022568
v 0.000000 0.024131 -0.011430
v 0.780609 0.021232 -3.944404
v 0.013292 0.024131 -0.010120
v 1.531219 0.021232 -3.712915
v 0.026074 0.024131 -0.006243
v 2.222985 0.021232 -3.336998
v 0.037853 0.024131 0.000053
v 2.829324 0.021232 -2.831099
v 0.048178 0.024131 0.008526
v 3.326932 0.021232 -2.214658
v 0.056651 0.024131 0.018851
v 3.696689 0.021232 -1.511367
v 0.062947 0.024131 0.030630
v 3.924385 0.021232 -0.748251
v 0.066825 0.024131 0.043412
v 4.001268 0.021232 0.045363
v 0.068134 0.024131 0.056704
v 3.924385 0.021232 0.838977
v 0.066825 0.024131 0.069996
v 3.696689 0.021232 1.602094
v 0.062947 0.024131 0.082778
v 3.326932 0.021232 2.305385
v 0.056651 0.024131 0.094557
v 2.829324 0.021232 2.921825
v 0.048178 0.024131 0.104882
v 2.222985 0.021232 3.427725
v 0.037853 0.024131 0.113355
v 1.531219 0.021232 3.803642
v 0.026074 0.024131 0.119652
v 0.780609 0.021232 4.035131
v 0.013292 0.024131 0.123529
v -0.000000 0.021232 4.113295
v 0.000000 0.024131 0.124838
v -0.780609 0.021232 4.035131
v -0.013292 0.024131 0.123529
v -1.531219 0.021232 3.803642
v -0.026074 0.024131 0.119652
v -2.222985 0.021232 3.427725
v -0.037853 0.024131 0.113355
v -2.829324 0.021232 2.921825
v -0.048178 0.024131 0.104882
v -3.326932 0.021232 2.305385
v -0.056651 0.024131 0.094557
v -3.696689 0.021232 1.602094
v -0.062947 0.024131 0.082778
v -3.924385 0.021232 0.838977
v -0.066825 0.024131 0.069996
v -4.001268 0.021232 0.045363
v -0.068134 0.024131 0.056704
v -3.924385 0.021232 -0.748251
v -0.066825 0.024131 0.043412
v -3.696689 0.021232 -1.511367
v -0.062947 0.024131 0.030630
v -3.326932 0.021232 -2.214658
v -0.056651 0.024131 0.018851
v -2.829324 0.021232 -2.831099
v -0.048178 0.024131 0.008526
v -2.222985 0.021232 -3.336998
v -0.037853 0.024131 0.000053
v -1.531219 0.021232 -3.712915
v -0.026074 0.024131 -0.006243
v -0.780609 0.021232 -3.944404
v -0.013292 0.024131 -0.010120
vn 0.0001 1.0000 -0.0007
vn 0.0002 1.0000 -0.0007
vn 0.0003 1.0000 -0.0006
vn 0.0005 1.0000 -0.0006
vn 0.0006 1.0000 -0.0005
vn 0.0007 1.0000 -0.0003
vn 0.0007 1.0000 -0.0002
vn 0.0007 1.0000 -0.0001
vn 0.0007 1.0000 0.0001
vn 0.0007 1.0000 0.0002
vn 0.0007 1.0000 0.0003
vn 0.0006 1.0000 0.0005
vn 0.0005 1.0000 0.0006
vn 0.0003 1.0000 0.0006
vn 0.0002 1.0000 0.0007
vn 0.0001 1.0000 0.0007
vn -0.0001 1.0000 0.0007
vn -0.0002 1.0000 0.0007
vn -0.0003 1.0000 0.0006
vn -0.0005 1.0000 0.0006
vn -0.0006 1.0000 0.0005
vn -0.0007 1.0000 0.0003
vn -0.0007 1.0000 0.0002
vn -0.0007 1.0000 0.0001
vn -0.0007 1.0000 -0.0001
vn -0.0007 1.0000 -0.0002
vn -0.0007 1.0000 -0.0003
vn -0.0006 1.0000 -0.0005
vn -0.0005 1.0000 -0.0006
vn -0.0003 1.0000 -0.0006
vn -0.0002 1.0000 -0.0007
vn -0.0001 1.0000 -0.0007
vt 1.000000 0.000000
vt 1.000000 1.000000
vt 0.968750 1.000000
vt 0.968750 0.000000
vt 0.937500 1.000000
vt 0.937500 0.000000
vt 0.906250 1.000000
vt 0.906250 0.000000
vt 0.875000 1.000000
vt 0.875000 0.000000
vt 0.843750 1.000000
vt 0.843750 0.000000
vt 0.812500 1.000000
vt 0.812500 0.000000
vt 0.781250 1.000000
vt 0.781250 0.000000
vt 0.750000 1.000000
vt 0.750000 0.000000
vt 0.718750 1.000000
vt 0.718750 0.000000
vt 0.687500 1.000000
vt 0.687500 0.000000
vt 0.656250 1.000000
vt 0.656250 0.000000
vt 0.625000 1.000000
vt 0.625000 0.000000
vt 0.593750 1.000000
vt 0.593750 0.000000
vt 0.562500 1.000000
vt 0.562500 0.000000
vt 0.531250 1.000000
vt 0.531250 0.000000
vt 0.500000 1.000000
vt 0.500000 0.000000
vt 0.468750 1.000000
vt 0.468750 0.000000
vt 0.437500 1.000000
vt 0.437500 0.000000
vt 0.406250 1.000000
vt 0.406250 0.000000
vt 0.375000 1.000000
vt 0.375000 0.000000
vt 0.343750 1.000000
vt 0.343750 0.000000
vt 0.312500 1.000000
vt 0.312500 0.000000
vt 0.281250 1.000000
vt 0.281250 0.000000
vt 0.250000 1.000000
vt 0.250000 0.000000
vt 0.218750 1.000000
vt 0.218750 0.000000
vt 0.187500 1.000000
vt 0.187500 0.000000
vt 0.156250 1.000000
vt 0.156250 0.000000
vt 0.125000 1.000000
vt 0.125000 0.000000
vt 0.093750 1.000000
vt 0.093750 0.000000
vt 0.062500 1.000000
vt 0.062500 0.000000
vt 0.031250 1.000000
vt 0.031250 0.000000
vt 0.000000 1.000000
vt 0.000000 0.000000
s 0
f 1/1/1 2/2/1 4/3/1 3/4/1
f 3/4/2 4/3/2 6/5/2 5/6/2
f 5/6/3 6/5/3 8/7/3 7/8/3
f 7/8/4 8/7/4 10/9/4 9/10/4
f 9/10/5 10/9/5 12/11/5 11/12/5
f 11/12/6 12/11/6 14/13/6 13/14/6
f 13/14/7 14/13/7 16/15/7 15/16/7
f 15/16/8 16/15/8 18/17/8 17/18/8
f 17/18/9 18/17/9 20/19/9 19/20/9
f 19/20/10 20/19/10 22/21/10 21/22/10
f 21/22/11 22/21/11 24/23/11 23/24/11
f 23/24/12 24/23/12 26/25/12 25/26/12
f 25/26/13 26/25/13 28/27/13 27/28/13
f 27/28/14 28/27/14 30/29/14 29/30/14
f 29/30/15 30/29/15 32/31/15 31/32/15
f 31/32/16 32/31/16 34/33/16 33/34/16
f 33/34/17 34/33/17 36/35/17 35/36/17
f 35/36/18 36/35/18 38/37/18 37/38/18
f 37/38/19 38/37/19 40/39/19 39/40/19
f 39/40/20 40/39/20 42/41/20 41/42/20
f 41/42/21 42/41/21 44/43/21 43/44/21
f 43/44/22 44/43/22 46/45/22 45/46/22
f 45/46/23 46/45/23 48/47/23 47/48/23
f 47/48/24 48/47/24 50/49/24 49/50/24
f 49/50/25 50/49/25 52/51/25 51/52/25
f 51/52/26 52/51/26 54/53/26 53/54/26
f 53/54/27 54/53/27 56/55/27 55/56/27
f 55/56/28 56/55/28 58/57/28 57/58/28
f 57/58/29 58/57/29 60/59/29 59/60/29
f 59/60/30 60/59/30 62/61/30 61/62/30
f 61/62/31 62/61/31 64/63/31 63/64/31
f 63/64/32 64/63/32 2/65/32 1/66/32
